<svg width="20" height="20" viewBox="0 0 20 20" fill="none" xmlns="http://www.w3.org/2000/svg">
<path d="M5.83333 15.8332H4.0125C3.74964 15.8339 3.49105 15.7667 3.26181 15.6381C3.03257 15.5095 2.84048 15.3238 2.70417 15.099C2.57326 14.8733 2.50404 14.6171 2.50345 14.3561C2.50287 14.0952 2.57094 13.8387 2.70083 13.6123L5.99667 7.9165" stroke="#6B6B6B" stroke-width="1.66667" stroke-linecap="round" stroke-linejoin="round"/>
<path d="M9.16667 15.8332H16.0025C16.2641 15.8312 16.5208 15.7619 16.7479 15.632C16.975 15.5021 17.1648 15.316 17.2992 15.0915C17.4283 14.8664 17.4962 14.6115 17.4962 14.352C17.4962 14.0925 17.4283 13.8375 17.2992 13.6124L16.2775 11.8457" stroke="#6B6B6B" stroke-width="1.66667" stroke-linecap="round" stroke-linejoin="round"/>
<path d="M11.6667 13.3335L9.16667 15.8335L11.6667 18.3335" stroke="#6B6B6B" stroke-width="1.66667" stroke-linecap="round" stroke-linejoin="round"/>
<path d="M6.91084 11.3298L5.99668 7.9165L2.58334 8.8315" stroke="#6B6B6B" stroke-width="1.66667" stroke-linecap="round" stroke-linejoin="round"/>
<path d="M7.78667 4.8425L8.6975 3.26584C8.82829 3.03783 9.01579 2.84751 9.24182 2.71332C9.46784 2.57914 9.72471 2.50566 9.9875 2.5C10.2483 2.49952 10.5046 2.56764 10.7307 2.69752C10.9569 2.82741 11.1449 3.0145 11.2758 3.24L14.5617 8.9425" stroke="#6B6B6B" stroke-width="1.66667" stroke-linecap="round" stroke-linejoin="round"/>
<path d="M11.1483 8.02763L14.5617 8.94263L15.4758 5.5293" stroke="#6B6B6B" stroke-width="1.66667" stroke-linecap="round" stroke-linejoin="round"/>
</svg>
